<svg xmlns="http://www.w3.org/2000/svg" viewBox="0 0 500 500" width="500" height="500">
  <rect width="500" height="500" rx="112.5" fill="#000000" />
  <path fill="#D7FF00" fill-rule="evenodd" d="M118 58 h60 a60 60 0 0 1 60 60 v60 a84 84 0 0 0 84 84 h60 a60 60 0 0 1 60 60 v60 a60 60 0 0 1 -60 60 h-60 a60 60 0 0 1 -60 -60 v-60 a84 84 0 0 0 -84 -84 h-60 a60 60 0 0 1 -60 -60 v-60 a60 60 0 0 1 60 -60 z M362 376 v28 a14 14 0 0 0 14 14 h28 a14 14 0 0 0 14 -14 v-28 a14 14 0 0 0 -14 -14 h-28 a14 14 0 0 0 -14 14 z M322 58 h60 a60 60 0 0 1 60 60 v60 a60 60 0 0 1 -60 60 h-60 a60 60 0 0 1 -60 -60 v-60 a60 60 0 0 1 60 -60 z M118 262 h60 a60 60 0 0 1 60 60 v60 a60 60 0 0 1 -60 60 h-60 a60 60 0 0 1 -60 -60 v-60 a60 60 0 0 1 60 -60 z" />
</svg>
