<svg xmlns="http://www.w3.org/2000/svg" width="16" height="16" viewBox="0 0 16 16">
  <path fill="#38342a" d="M 9.0000003,1 H 10 v 1 h 1 v 1 h 1 v 1.0000001 h 1 v 0.9999998 h 1 v 1.0000004 h 1 V 7.9999999 H 14 V 9.0000003 H 12 V 10 h -1 v 1 h -1 v 1 H 9.0000003 v 2 H 7.9999999 v 1 H 6.0000003 V 14 H 4.9999999 V 13 H 4.0000001 V 12 H 3 V 11 H 2 V 9.0000003 H 3 V 7.9999999 H 4.0000001 V 7.0000001 H 4.9999999 V 6.0000003 H 6.0000003 V 4.9999999 H 7.0000001 V 4.0000001 H 7.9999999 V 2 h 1.0000004 z"/>
  <path fill="#dbd0b4" d="M 4.0000001,9.0000003 V 7.9999999 H 4.9999999 V 7.0000001 H 6.0000003 V 6.0000003 H 7.0000001 L 8,5 l -1e-7,-0.9999999 H 9.0000003 L 9.5150305,3.5134602 9.0000003,3 V 2 H 10 v 1 h 1 v 1.0000001 h 1 v 0.9999998 h 1 V 6.0000003 L 11.640228,6.6374971 10,10 8.5498969,10.550634 7.9999999,12 6.3745407,12.704335 3.5434597,9.6508493 Z"/>
  <path fill="#bcb29c" d="M 9.0000003,3 H 10 v 1.0000001 h 1 v 0.9999998 h 1 v 1.0000004 h 1 v 0.9999998 h -1 l -2.9999997,-3 z"/>
  <path fill="#bcb29c" d="M 12,7.0000001 11.491293,6.5607843 11,7.0000001 10,7.9999999 V 10 h 1 V 9.0000003 h 1 z"/>
  <path fill="#bcb29c" d="M 10,10 H 9 L 8.5574874,9.4050674 7.9999999,10 v 2 H 9.0000003 V 11 H 10 Z"/>
  <path fill="#bcb29c" d="M 7.9999999,12 H 7.0000001 L 6.5230038,12.545657 7.0000001,13 h 0.9999998 z"/>
  <path fill="#c6bca5" d="M 7.0000001,5 H 7.9999999 V 6 7 H 11 V 8 H 9.0000003 V 6 H 7.0000001 Z"/>
  <path fill="#c6bca5" d="M 6.0000003,7.9999999 H 7.0000001 V 10 H 9.0000003 V 9.0000003 h -3 z"/>
  <path fill="#aea694" d="M 3,9.0000003 V 10 L 6.0000003,13 6.4932221,13.427384 7.0000001,13 V 12 H 6.0000003 V 11 H 4.9999999 V 10 H 4.0000001 V 9.0000003 Z"/>
  <path fill="#9a927e" d="m 3,10 v 1 h 1.9999999 v 2 h 2.0000002 v 1 H 6.0000003 V 12 H 4.0000001 v -2 z"/>
  <path fill="#807a6d" d="m 13,7.0000001 h 1 v 0.9999998 h -1 z"/>
  <path fill="#aea694" d="M 9.0000003,4.0000001 V 4.9999999 H 11 v 2.0000002 h 1 V 6.0000003 H 10 V 4.0000001 Z"/>
</svg>
