<svg xmlns="http://www.w3.org/2000/svg" viewBox="0 0 64 64" shape-rendering="crispEdges"><defs><clipPath id="rc"><rect width="64" height="64" rx="12" ry="12"/></clipPath></defs><g clip-path="url(#rc)"><rect width="64" height="64" fill="#53a436"/><path fill="#52a637" d="M2 0h3v1H2ZM7 0h3v1H7ZM20 0h5v1H20ZM27 0h1v1H27ZM30 0h1v1H30ZM33 0h1v1H33ZM40 0h2v1H40ZM43 0h8v1H43ZM54 0h7v1H54ZM3 1h5v1H3ZM12 1h1v1H12ZM16 1h5v1H16ZM23 1h2v1H23ZM38 1h1v1H38ZM43 1h2v1H43ZM46 1h3v2H46ZM57 1h4v1H57ZM4 2h3v1H4ZM13 2h1v2H13ZM17 2h2v1H17ZM57 2h3v1H57ZM61 2h1v1H61ZM5 3h2v1H5ZM8 3h3v1H8ZM18 3h1v3H18ZM21 3h2v1H21ZM25 3h1v1H25ZM33 3h1v1H33ZM38 3h2v1H38ZM45 3h2v1H45ZM49 3h1v1H49ZM56 3h4v1H56ZM1 4h2v1H1ZM5 4h1v1H5ZM7 4h6v1H7ZM14 4h2v1H14ZM28 4h1v2H28ZM46 4h1v1H46ZM56 4h5v1H56ZM3 5h4v1H3ZM8 5h1v2H8ZM11 5h4v1H11ZM20 5h1v1H20ZM25 5h1v1H25ZM31 5h2v1H31ZM36 5h2v1H36ZM57 5h5v1H57ZM4 6h2v2H4ZM12 6h1v2H12ZM25 6h2v1H25ZM44 6h2v1H44ZM58 6h3v1H58ZM62 6h1v1H62ZM24 7h2v1H24ZM44 7h1v1H44ZM50 7h1v1H50ZM58 7h4v1H58ZM5 8h1v1H5ZM23 8h1v1H23ZM38 8h2v1H38ZM41 8h1v1H41ZM56 8h1v1H56ZM59 8h3v1H59ZM7 9h1v1H7ZM13 9h11v1H13ZM27 9h1v2H27ZM38 9h1v1H38ZM40 9h8v1H40ZM49 9h2v1H49ZM60 9h2v1H60ZM4 10h2v2H4ZM12 10h1v2H12ZM25 10h1v1H25ZM39 10h1v2H39ZM52 10h1v2H52ZM58 10h4v1H58ZM25 11h2v1H25ZM9 12h1v4H9ZM62 12h1v1H62ZM28 13h1v11H28ZM36 13h1v3H36ZM58 13h1v1H58ZM31 14h1v1H31ZM55 14h1v10H55ZM58 14h2v1H58ZM61 15h1v1H61ZM61 17h1v2H61ZM62 19h1v1H62ZM60 20h2v1H60ZM34 21h1v2H34ZM57 21h1v1H57ZM57 22h3v1H57ZM59 23h1v1H59ZM9 24h1v2H9ZM36 24h1v1H36ZM59 24h2v1H59ZM27 25h10v1H27ZM56 25h2v2H56ZM3 27h2v1H3ZM10 27h2v1H10ZM38 27h1v1H38ZM53 27h1v1H53ZM55 27h1v2H55ZM4 28h2v1H4ZM8 29h1v1H8ZM40 29h1v1H40ZM58 29h1v1H58ZM61 30h1v1H61ZM1 31h1v1H1ZM10 31h1v1H10ZM15 31h1v1H15ZM19 31h3v1H19ZM41 31h1v1H41ZM43 31h1v1H43ZM55 31h5v1H55ZM58 32h3v1H58ZM59 33h2v1H59ZM58 35h1v2H58ZM4 36h2v1H4ZM55 36h1v2H55ZM44 37h2v1H44ZM58 38h2v1H58ZM18 42h1v1H18ZM58 42h2v1H58ZM16 47h1v1H16ZM58 50h2v1H58ZM59 51h2v1H59ZM59 52h1v1H59ZM12 53h1v1H12ZM8 54h1v2H8ZM23 54h1v3H23ZM41 54h1v1H41ZM10 55h1v1H10ZM14 55h1v2H14ZM46 55h1v1H46ZM56 55h1v3H56ZM58 55h2v3H58ZM9 56h3v1H9ZM21 56h1v1H21ZM41 56h1v1H41ZM24 57h2v1H24ZM38 57h3v1H38ZM25 58h1v2H25ZM59 58h1v1H59ZM60 59h1v1H60ZM27 60h7v1H27ZM37 60h1v1H37ZM62 62h1v1H62Z"/><path fill="#52a436" d="M25 0h1v1H25ZM62 1h1v1H62ZM12 2h1v1H12ZM32 2h2v1H32ZM31 3h1v1H31ZM62 3h1v1H62ZM30 4h1v1H30ZM2 5h1v1H2ZM62 5h1v1H62ZM13 7h1v1H13ZM23 7h1v1H23ZM41 7h1v1H41ZM62 7h1v4H62ZM12 8h1v1H12ZM48 8h1v1H48ZM54 8h2v1H54ZM39 9h1v1H39ZM26 10h1v1H26ZM11 11h1v1H11ZM8 13h1v1H8ZM59 13h1v1H59ZM62 14h1v4H62ZM56 15h1v2H56ZM58 15h2v1H58ZM4 16h1v1H4ZM31 16h1v1H31ZM59 16h2v1H59ZM59 17h1v1H59ZM58 18h1v1H58ZM31 19h1v1H31ZM34 19h2v1H34ZM56 19h2v1H56ZM59 19h1v2H59ZM8 20h1v1H8ZM56 20h1v3H56ZM62 20h1v5H62ZM35 21h1v1H35ZM58 21h1v1H58ZM29 23h1v1H29ZM33 24h2v1H33ZM55 25h1v1H55ZM59 25h4v1H59ZM61 26h2v1H61ZM59 29h1v1H59ZM24 30h1v1H24ZM58 30h2v1H58ZM4 34h1v1H4ZM57 34h1v1H57ZM54 35h1v1H54ZM60 36h1v3H60ZM44 38h1v1H44ZM59 39h2v1H59ZM61 40h1v1H61ZM5 41h1v1H5ZM58 41h1v1H58ZM14 42h1v1H14ZM61 43h2v1H61ZM6 44h1v1H6ZM47 44h1v1H47ZM17 45h1v1H17ZM58 45h1v1H58ZM59 46h4v1H59ZM47 48h1v1H47ZM57 49h6v1H57ZM50 50h2v1H50ZM57 50h1v1H57ZM61 50h1v1H61ZM16 51h1v1H16ZM55 51h1v1H55ZM61 51h2v1H61ZM57 52h2v1H57ZM60 52h2v1H60ZM13 53h1v1H13ZM58 53h2v1H58ZM12 54h1v1H12ZM22 54h1v1H22ZM49 55h1v1H49ZM55 55h1v1H55ZM62 55h1v1H62ZM15 56h1v1H15ZM61 56h2v1H61ZM9 57h1v1H9ZM60 57h1v1H60ZM21 58h1v1H21ZM62 58h1v4H62ZM35 60h2v1H35ZM59 60h1v2H59ZM24 62h1v1H24ZM62 63h1v1H62Z"/><path fill="#51a335" d="M11 2h1v1H11ZM47 3h1v1H47ZM25 4h1v1H25ZM10 6h1v1H10ZM32 6h2v1H32ZM18 7h1v1H18ZM17 8h2v1H17ZM36 8h1v1H36ZM29 9h1v1H29ZM0 10h1v2H0ZM53 10h1v1H53ZM29 11h1v1H29ZM34 11h1v1H34ZM54 11h2v2H54ZM10 12h1v1H10ZM27 12h1v3H27ZM32 12h1v1H32ZM37 12h1v1H37ZM54 13h1v3H54ZM33 14h1v1H33ZM0 16h1v1H0ZM8 16h1v1H8ZM29 16h1v1H29ZM35 16h1v3H35ZM7 17h2v1H7ZM32 17h1v1H32ZM0 18h1v1H0ZM6 18h1v1H6ZM8 18h1v2H8ZM0 19h3v2H0ZM5 19h1v1H5ZM32 19h2v1H32ZM4 20h2v1H4ZM29 20h2v1H29ZM35 20h1v1H35ZM0 21h2v1H0ZM3 21h2v1H3ZM8 21h1v3H8ZM35 22h1v2H35ZM1 23h1v1H1ZM27 24h2v1H27ZM1 25h2v1H1ZM54 25h1v1H54ZM58 25h1v1H58ZM10 26h1v1H10ZM12 27h1v2H12ZM25 27h2v1H25ZM52 27h1v3H52ZM8 28h1v1H8ZM25 28h1v2H25ZM38 28h1v1H38ZM13 30h11v1H13ZM40 30h12v1H40ZM22 32h1v3H22ZM42 32h1v15H42ZM52 32h2v2H52ZM0 33h2v2H0ZM12 33h1v1H12ZM18 33h3v1H18ZM50 33h1v1H50ZM7 34h1v1H7ZM10 34h1v1H10ZM19 34h2v1H19ZM46 34h1v2H46ZM50 34h2v1H50ZM54 34h2v1H54ZM58 34h1v1H58ZM0 35h3v1H0ZM8 35h2v1H8ZM19 35h4v1H19ZM49 35h3v2H49ZM53 35h1v3H53ZM9 36h1v1H9ZM14 36h1v2H14ZM19 36h1v1H19ZM22 36h1v2H22ZM6 37h1v1H6ZM18 37h1v2H18ZM48 37h4v1H48ZM0 38h1v1H0ZM5 38h2v1H5ZM11 38h2v1H11ZM14 38h2v1H14ZM20 38h3v1H20ZM47 38h5v1H47ZM53 38h4v1H53ZM0 39h3v1H0ZM4 39h3v1H4ZM12 39h4v1H12ZM17 39h2v1H17ZM20 39h1v1H20ZM22 39h1v6H22ZM46 39h11v2H46ZM0 40h7v1H0ZM11 40h3v2H11ZM17 40h1v1H17ZM44 40h1v1H44ZM60 40h1v2H60ZM0 41h2v1H0ZM4 41h1v1H4ZM6 41h1v2H6ZM16 41h1v2H16ZM48 41h2v1H48ZM53 41h2v1H53ZM0 42h1v1H0ZM2 42h2v1H2ZM13 42h1v1H13ZM47 42h3v1H47ZM53 42h1v1H53ZM1 43h2v1H1ZM5 43h3v1H5ZM9 43h2v1H9ZM13 43h6v1H13ZM47 43h5v1H47ZM60 43h1v1H60ZM0 44h3v3H0ZM4 44h2v1H4ZM7 44h4v1H7ZM13 44h2v1H13ZM16 44h4v1H16ZM45 44h2v2H45ZM48 44h5v1H48ZM59 44h2v1H59ZM9 45h1v1H9ZM12 45h2v1H12ZM21 45h2v1H21ZM48 45h3v1H48ZM54 45h1v1H54ZM6 46h2v1H6ZM18 46h3v1H18ZM22 46h1v8H22ZM45 46h5v1H45ZM53 46h1v1H53ZM0 47h2v1H0ZM7 47h1v1H7ZM19 47h1v1H19ZM42 47h2v1H42ZM45 47h9v1H45ZM56 47h4v1H56ZM0 48h3v2H0ZM4 48h2v1H4ZM10 48h4v1H10ZM18 48h2v1H18ZM42 48h1v6H42ZM46 48h1v1H46ZM48 48h1v1H48ZM54 48h2v1H54ZM59 48h1v1H59ZM5 49h3v1H5ZM13 49h1v1H13ZM17 49h1v1H17ZM44 49h1v2H44ZM49 49h2v1H49ZM53 49h1v1H53ZM55 49h2v1H55ZM0 50h4v1H0ZM5 50h2v1H5ZM16 50h2v1H16ZM52 50h1v1H52ZM0 51h3v1H0ZM5 51h3v1H5ZM20 51h1v1H20ZM44 51h2v2H44ZM51 51h3v1H51ZM1 52h2v1H1ZM10 52h1v1H10ZM17 52h4v2H17ZM50 52h7v1H50ZM0 53h3v2H0ZM46 53h2v1H46ZM49 53h9v1H49ZM42 54h2v1H42ZM49 54h2v1H49ZM52 54h4v1H52ZM0 55h1v1H0ZM42 55h1v1H42ZM52 55h3v1H52ZM43 56h1v1H43ZM19 57h1v1H19ZM26 57h1v2H26ZM49 57h3v2H49ZM2 58h1v1H2ZM9 58h1v1H9ZM17 58h2v1H17ZM20 58h1v1H20ZM39 58h1v1H39ZM54 58h1v1H54ZM0 59h1v1H0ZM18 59h1v1H18ZM27 59h2v1H27ZM30 59h6v1H30ZM37 59h1v1H37ZM20 60h1v1H20ZM23 60h1v1H23ZM0 61h1v2H0ZM5 61h1v1H5ZM9 61h1v1H9ZM15 61h1v3H15ZM18 61h3v1H18ZM23 61h2v1H23ZM33 61h4v1H33ZM43 61h1v1H43ZM51 61h3v1H51ZM58 61h1v1H58ZM2 62h1v1H2ZM13 62h1v1H13ZM18 62h2v1H18ZM22 62h2v1H22ZM37 62h3v1H37ZM42 62h1v1H42ZM52 62h3v1H52ZM2 63h3v1H2ZM10 63h4v1H10ZM21 63h3v1H21ZM38 63h1v1H38ZM41 63h1v1H41ZM43 63h2v1H43ZM51 63h4v1H51Z"/><path fill="#4d9432" d="M13 10h1v1H13ZM40 10h1v1H40ZM37 13h1v2H37ZM11 26h2v1H11ZM25 26h2v1H25ZM38 26h2v1H38ZM52 26h2v1H52ZM26 29h1v2H26ZM24 31h1v1H24ZM38 31h1v1H38ZM24 56h1v1H24ZM38 56h1v1H38Z"/><path fill="#44812d" d="M14 10h10v1H14ZM41 10h10v1H41ZM13 12h1v1H13ZM40 12h1v1H40ZM10 16h1v7H10ZM37 23h1v1H37ZM26 25h1v1H26ZM53 25h1v1H53ZM37 28h1v1H37ZM26 31h1v1H26ZM40 55h1v1H40ZM27 57h1v1H27ZM35 57h1v1H35ZM37 58h1v1H37Z"/><path fill="#4f9c34" d="M24 10h1v2H24ZM51 10h1v2H51ZM11 12h2v1H11ZM25 12h2v1H25ZM38 12h2v1H38ZM52 12h2v1H52ZM10 13h1v2H10ZM27 15h1v9H27ZM54 16h1v8H54ZM10 24h1v2H10ZM37 24h1v2H37ZM39 27h1v3H39ZM26 28h1v1H26ZM40 31h1v1H40ZM40 56h1v1H40ZM29 59h1v1H29ZM36 59h1v1H36Z"/><path fill="#488b30" d="M13 11h1v1H13ZM40 11h1v1H40ZM24 12h1v1H24ZM51 12h1v1H51ZM10 15h1v1H10ZM37 15h1v1H37ZM10 23h1v1H10ZM27 26h11v1H27ZM25 31h1v1H25ZM39 31h1v1H39ZM40 54h1v1H40ZM25 56h2v1H25ZM39 56h1v1H39Z"/><path fill="#427a2c" d="M14 11h10v1H14ZM41 11h10v1H41ZM12 14h1v1H12ZM39 14h1v1H39ZM52 14h2v1H52ZM37 16h1v7H37ZM11 25h1v1H11ZM38 25h1v1H38ZM37 27h1v1H37ZM27 28h1v1H27ZM24 54h1v1H24ZM28 57h7v1H28ZM36 57h1v1H36ZM27 58h10v1H27Z"/><path fill="#3a6927" d="M14 12h10v1H14ZM41 12h10v1H41ZM11 13h1v1H11ZM26 13h1v1H26ZM38 13h1v2H38ZM24 24h1v1H24ZM51 24h1v1H51ZM28 27h9v1H28ZM40 32h1v2H40ZM40 53h1v1H40ZM25 54h2v1H25ZM39 54h1v1H39ZM38 55h1v1H38ZM37 56h1v1H37Z"/><path fill="#3d732b" d="M12 13h1v1H12ZM25 13h1v1H25ZM39 13h1v1H39ZM52 13h2v1H52ZM11 14h1v1H11ZM25 14h2v1H25ZM27 27h1v1H27ZM28 28h9v1H28ZM38 54h1v1H38ZM24 55h1v1H24Z"/><path fill="#203916" d="M13 13h1v2H13ZM40 14h1v1H40ZM51 15h1v1H51ZM13 25h1v1H13ZM40 25h1v1H40ZM37 29h1v1H37ZM24 34h1v1H24Z"/><path fill="#030101" d="M14 13h1v1H14ZM41 13h1v1H41ZM50 14h1v1H50ZM14 15h1v1H14ZM23 15h1v1H23ZM41 15h1v1H41ZM13 16h1v1H13ZM24 16h1v1H24ZM39 16h2v1H39ZM51 16h1v1H51ZM38 17h1v5H38ZM11 18h1v3H11ZM25 18h1v3H25ZM52 18h1v3H52ZM13 22h1v1H13ZM24 22h1v1H24ZM40 22h1v1H40ZM51 22h1v1H51ZM14 24h1v1H14ZM23 24h1v1H23ZM41 24h1v1H41ZM29 30h7v1H29ZM36 31h1v1H36ZM25 51h1v1H25ZM26 52h1v1H26ZM38 52h1v1H38ZM36 54h1v1H36ZM29 55h2v1H29ZM35 55h1v1H35Z"/><path fill="#080904" d="M15 13h1v1H15ZM19 13h2v1H19ZM22 13h1v1H22ZM42 13h1v1H42ZM46 13h4v1H46ZM26 16h1v1H26ZM53 16h1v1H53ZM26 22h1v1H26ZM53 22h1v1H53ZM15 24h8v1H15ZM42 24h8v1H42ZM27 30h1v2H27ZM37 32h1v2H37ZM25 34h1v1H25ZM39 34h1v1H39ZM26 51h1v1H26ZM38 51h1v1H38ZM27 54h1v1H27Z"/><path fill="#060603" d="M16 13h3v1H16ZM21 13h1v1H21ZM43 13h3v1H43ZM15 14h1v1H15ZM22 14h1v1H22ZM42 14h1v2H42ZM15 15h5v1H15ZM21 15h2v1H21ZM44 15h2v1H44ZM49 15h1v1H49ZM14 16h1v1H14ZM16 16h2v1H16ZM21 16h1v1H21ZM41 16h1v1H41ZM43 16h2v1H43ZM12 17h2v1H12ZM15 17h7v1H15ZM24 17h1v1H24ZM39 17h2v1H39ZM42 17h2v1H42ZM51 17h1v1H51ZM12 18h9v1H12ZM22 18h3v1H22ZM39 18h5v1H39ZM45 18h3v1H45ZM50 18h2v1H50ZM12 19h8v1H12ZM21 19h4v1H21ZM39 19h4v1H39ZM45 19h1v1H45ZM51 19h1v3H51ZM12 20h3v1H12ZM16 20h2v1H16ZM20 20h3v1H20ZM24 20h1v2H24ZM39 20h1v1H39ZM43 20h2v1H43ZM12 21h2v1H12ZM15 21h5v1H15ZM21 21h2v1H21ZM39 21h2v1H39ZM43 21h1v1H43ZM14 22h7v1H14ZM23 22h1v1H23ZM41 22h2v1H41ZM46 22h2v1H46ZM15 23h5v1H15ZM22 23h1v1H22ZM42 23h1v1H42ZM44 23h4v1H44ZM29 31h7v1H29ZM27 32h1v3H27ZM32 32h1v1H32ZM30 33h2v1H30ZM35 33h1v1H35ZM30 34h1v1H30ZM37 34h1v1H37ZM38 35h1v6H38ZM26 36h1v1H26ZM28 36h1v1H28ZM26 37h3v1H26ZM26 38h1v3H26ZM28 40h2v1H28ZM26 41h3v2H26ZM36 41h3v1H36ZM36 42h1v1H36ZM38 42h1v3H38ZM26 43h1v2H26ZM36 44h1v1H36ZM26 45h3v3H26ZM32 45h1v1H32ZM34 45h5v1H34ZM30 46h3v1H30ZM35 46h4v2H35ZM30 47h2v2H30ZM26 48h1v1H26ZM28 48h1v1H28ZM35 48h2v1H35ZM38 48h1v2H38ZM26 49h5v1H26ZM26 50h3v1H26ZM31 50h8v1H31ZM27 51h2v1H27ZM30 51h8v1H30ZM31 52h1v1H31ZM33 52h4v1H33ZM27 53h1v1H27ZM33 53h3v1H33ZM29 54h7v1H29ZM27 55h1v1H27Z"/><path fill="#050402" d="M23 13h1v1H23ZM50 13h1v1H50ZM16 14h6v1H16ZM43 14h7v1H43ZM20 15h1v1H20ZM43 15h1v1H43ZM46 15h3v1H46ZM50 15h1v1H50ZM15 16h1v1H15ZM18 16h3v1H18ZM22 16h2v2H22ZM42 16h1v1H42ZM45 16h6v1H45ZM11 17h1v1H11ZM14 17h1v1H14ZM25 17h1v1H25ZM41 17h1v1H41ZM44 17h7v1H44ZM52 17h1v1H52ZM21 18h1v1H21ZM44 18h1v1H44ZM48 18h2v1H48ZM20 19h1v1H20ZM43 19h2v1H43ZM46 19h5v1H46ZM15 20h1v1H15ZM18 20h2v1H18ZM23 20h1v2H23ZM40 20h3v1H40ZM45 20h6v1H45ZM11 21h1v1H11ZM14 21h1v1H14ZM20 21h1v1H20ZM25 21h1v1H25ZM41 21h2v1H41ZM44 21h7v1H44ZM52 21h1v1H52ZM21 22h2v1H21ZM43 22h3v1H43ZM48 22h3v2H48ZM14 23h1v1H14ZM20 23h2v1H20ZM23 23h1v1H23ZM41 23h1v1H41ZM43 23h1v1H43ZM50 24h1v1H50ZM28 31h1v1H28ZM28 32h4v1H28ZM33 32h4v1H33ZM28 33h2v2H28ZM32 33h3v1H32ZM36 33h1v1H36ZM31 34h6v1H31ZM26 35h12v1H26ZM27 36h1v1H27ZM29 36h9v2H29ZM27 38h11v2H27ZM27 40h1v1H27ZM30 40h8v1H30ZM29 41h7v2H29ZM37 42h1v1H37ZM27 43h11v1H27ZM27 44h9v1H27ZM37 44h1v1H37ZM29 45h3v1H29ZM33 45h1v1H33ZM29 46h1v3H29ZM33 46h2v1H33ZM32 47h3v2H32ZM27 48h1v1H27ZM37 48h1v1H37ZM31 49h7v1H31ZM29 50h2v1H29ZM29 51h1v1H29ZM27 52h4v1H27ZM32 52h1v1H32ZM37 52h1v1H37ZM28 53h5v1H28ZM36 53h1v1H36ZM28 54h1v1H28Z"/><path fill="#2c501f" d="M24 13h1v2H24ZM51 13h1v1H51ZM12 15h1v1H12ZM26 15h1v1H26ZM53 15h1v1H53ZM24 53h1v1H24ZM28 56h9v1H28Z"/><path fill="#1c3212" d="M40 13h1v1H40ZM24 15h1v1H24ZM26 23h1v1H26ZM53 23h1v1H53ZM24 35h1v18H24ZM38 53h1v1H38Z"/><path fill="#000000" d="M14 14h1v1H14ZM23 14h1v1H23ZM41 14h1v1H41ZM11 16h2v1H11ZM25 16h1v1H25ZM38 16h1v1H38ZM52 16h1v1H52ZM11 22h2v1H11ZM25 22h1v1H25ZM38 22h2v1H38ZM52 22h1v1H52ZM14 25h10v1H14ZM41 25h10v1H41ZM28 30h1v1H28ZM36 30h1v1H36ZM25 35h1v16H25ZM39 35h1v18H39ZM25 52h1v1H25ZM28 55h1v1H28ZM31 55h4v1H31ZM36 55h1v1H36Z"/><path fill="#305920" d="M51 14h1v1H51ZM24 25h1v1H24ZM51 25h1v1H51ZM40 34h1v19H40ZM25 55h2v1H25ZM39 55h1v1H39ZM27 56h1v1H27Z"/><path fill="#264519" d="M11 15h1v1H11ZM25 15h1v1H25ZM38 15h2v1H38ZM52 15h1v1H52ZM13 24h1v1H13ZM40 24h1v1H40ZM24 32h1v2H24Z"/><path fill="#17250f" d="M13 15h1v1H13ZM40 15h1v1H40ZM11 23h2v1H11ZM25 23h1v1H25ZM39 23h1v1H39ZM52 23h1v1H52ZM27 29h1v1H27ZM37 30h1v2H37ZM25 53h2v1H25ZM39 53h1v1H39Z"/><path fill="#57ac39" d="M9 16h1v8H9ZM36 16h1v8H36ZM13 29h1v1H13ZM25 30h1v1H25ZM38 30h1v1H38ZM23 32h1v22H23ZM41 32h1v22H41ZM41 55h1v1H41Z"/><path fill="#0c1407" d="M26 17h1v5H26ZM53 17h1v5H53ZM13 23h1v1H13ZM40 23h1v1H40ZM36 29h1v1H36ZM25 32h1v2H25ZM39 32h1v2H39ZM26 34h1v1H26ZM38 34h1v1H38ZM37 53h1v1H37Z"/><path fill="#111c0b" d="M24 23h1v1H24ZM38 23h1v1H38ZM51 23h1v1H51ZM28 29h8v1H28ZM26 32h1v2H26ZM38 32h1v2H38ZM37 54h1v2H37Z"/><path fill="#4c8532" d="M11 24h1v1H11ZM26 24h1v1H26ZM38 24h1v1H38ZM53 24h1v1H53ZM12 25h1v1H12ZM25 25h1v1H25ZM39 25h1v1H39ZM52 25h1v1H52ZM13 26h1v1H13ZM24 26h1v1H24ZM40 26h1v1H40ZM51 26h1v1H51ZM37 57h1v1H37Z"/><path fill="#528e35" d="M12 24h1v1H12ZM25 24h1v1H25ZM39 24h1v1H39ZM52 24h1v1H52Z"/><path fill="#446c32" d="M14 26h10v1H14ZM41 26h10v1H41Z"/><path fill="#6bbb4b" d="M13 27h1v2H13ZM40 27h1v2H40Z"/><path fill="#86d961" d="M14 27h10v1H14ZM41 27h10v1H41Z"/><path fill="#5cac3e" d="M24 27h1v2H24ZM51 27h1v2H51ZM14 29h10v1H14ZM41 29h10v1H41Z"/><path fill="#7cc85a" d="M14 28h10v1H14ZM41 28h10v1H41Z"/></g></svg>