<svg xmlns="http://www.w3.org/2000/svg" viewBox="18 14 92 98" fill="white">
  <path d="M42 66h7v7H42ZM77 66h7v7H77Z" opacity=".15"/>
  <path d="M42 23h7v7H42ZM77 23h7v7H77ZM35 30h7v8H35ZM84 30h7v8H84Z" opacity=".45"/>
  <path d="M56 45h14v7H56ZM56 52h14v7H56ZM56 59h7v7H56Z" opacity=".6"/>
  <path d="M42 16h14v7H42ZM70 16h14v7H70ZM35 23h7v7H35ZM49 23h7v7H49ZM70 23h7v7H70ZM84 23h7v7H84ZM27 30h8v8H27ZM49 30h7v8H49ZM70 30h7v8H70ZM91 30h8v8H91ZM35 38h7v7H35ZM84 38h7v7H84Z" opacity=".3"/>
  <path d="M42 38h7v7H42ZM77 38h7v7H77Z" opacity=".65"/>
  <path d="M56 38h14v7H56ZM35 45h14v7H35ZM77 45h14v7H77ZM27 52h8v7H27ZM91 52h8v7H91ZM20 59h7v7H20ZM99 59h7v7H99ZM27 66h8v7H27ZM91 66h8v7H91ZM56 73h14v7H56ZM35 87h14v8H35ZM77 87h14v8H77Z" opacity=".45"/>
  <path d="M56 30h14v8H56ZM27 38h8v7H27ZM49 38h7v7H49ZM70 38h7v7H70ZM91 38h8v7H91ZM27 45h8v7H27ZM91 45h8v7H91ZM20 73h7v7H20ZM99 73h7v7H99ZM27 80h8v7H27ZM91 80h8v7H91ZM27 87h8v8H27ZM91 87h8v8H91ZM35 95h14v7H35ZM77 95h14v7H77ZM49 102h28v7H49Z" opacity=".38"/>
  <path d="M42 73h7v7H42ZM77 73h7v7H77ZM56 87h14v8H56Z" opacity=".08"/>
  <path d="M42 30h7v8H42ZM77 30h7v8H77ZM42 59h7v7H42ZM77 59h7v7H77ZM35 73h7v7H35ZM84 73h7v7H84ZM56 95h14v7H56Z" opacity=".85"/>
  <path d="M35 59h7v7H35ZM84 59h7v7H84ZM35 66h7v7H35ZM84 66h7v7H84ZM49 87h7v8H49ZM70 87h7v8H70ZM49 95h7v7H49ZM70 95h7v7H70Z" opacity=".95"/>
  <path d="M49 45h7v7H49ZM70 45h7v7H70ZM35 52h21v7H35ZM70 52h21v7H70ZM27 59h8v7H27ZM49 59h7v7H49ZM63 59h14v7H63ZM91 59h8v7H91ZM49 66h28v7H49ZM27 73h8v7H27ZM49 73h7v7H49ZM70 73h7v7H70ZM91 73h8v7H91ZM35 80h56v7H35Z" opacity=".52"/>
</svg>
