<svg xmlns="http://www.w3.org/2000/svg" viewBox="0 0 16 16" shape-rendering="crispEdges">
  <rect x="9" y="1" width="1" height="1" fill="#38342a"/>
  <rect x="8" y="2" width="1" height="1" fill="#38342a"/>
  <rect x="9" y="2" width="1" height="1" fill="#dbd0b4"/>
  <rect x="10" y="2" width="1" height="1" fill="#38342a"/>
  <rect x="8" y="3" width="1" height="1" fill="#38342a"/>
  <rect x="9" y="3" width="1" height="1" fill="#c6bca5"/>
  <rect x="10" y="3" width="1" height="1" fill="#dbd0b4"/>
  <rect x="11" y="3" width="1" height="1" fill="#38342a"/>
  <rect x="7" y="4" width="1" height="1" fill="#38342a"/>
  <rect x="8" y="4" width="1" height="1" fill="#dbd0b4"/>
  <rect x="9" y="4" width="1" height="1" fill="#38342a"/>
  <rect x="10" y="4" width="1" height="1" fill="#bcb29c"/>
  <rect x="11" y="4" width="1" height="1" fill="#dbd0b4"/>
  <rect x="12" y="4" width="1" height="1" fill="#38342a"/>
  <rect x="6" y="5" width="1" height="1" fill="#38342a"/>
  <rect x="7" y="5" width="1" height="1" fill="#c6bca5"/>
  <rect x="8" y="5" width="2" height="1" fill="#dbd0b4"/>
  <rect x="10" y="5" width="1" height="1" fill="#38342a"/>
  <rect x="11" y="5" width="1" height="1" fill="#bcb29c"/>
  <rect x="12" y="5" width="1" height="1" fill="#dbd0b4"/>
  <rect x="13" y="5" width="1" height="1" fill="#38342a"/>
  <rect x="5" y="6" width="1" height="1" fill="#38342a"/>
  <rect x="6" y="6" width="2" height="1" fill="#dbd0b4"/>
  <rect x="8" y="6" width="1" height="1" fill="#c6bca5"/>
  <rect x="9" y="6" width="2" height="1" fill="#dbd0b4"/>
  <rect x="11" y="6" width="1" height="1" fill="#38342a"/>
  <rect x="12" y="6" width="1" height="1" fill="#bcb29c"/>
  <rect x="13" y="6" width="2" height="1" fill="#38342a"/>
  <rect x="4" y="7" width="1" height="1" fill="#38342a"/>
  <rect x="5" y="7" width="4" height="1" fill="#dbd0b4"/>
  <rect x="9" y="7" width="2" height="1" fill="#c6bca5"/>
  <rect x="11" y="7" width="1" height="1" fill="#bcb29c"/>
  <rect x="12" y="7" width="1" height="1" fill="#38342a"/>
  <rect x="13" y="7" width="1" height="1" fill="#807a6d"/>
  <rect x="14" y="7" width="1" height="1" fill="#38342a"/>
  <rect x="3" y="8" width="1" height="1" fill="#38342a"/>
  <rect x="4" y="8" width="2" height="1" fill="#dbd0b4"/>
  <rect x="6" y="8" width="1" height="1" fill="#c6bca5"/>
  <rect x="7" y="8" width="3" height="1" fill="#dbd0b4"/>
  <rect x="10" y="8" width="2" height="1" fill="#bcb29c"/>
  <rect x="12" y="8" width="2" height="1" fill="#38342a"/>
  <rect x="2" y="9" width="1" height="1" fill="#38342a"/>
  <rect x="3" y="9" width="1" height="1" fill="#aea694"/>
  <rect x="4" y="9" width="3" height="1" fill="#dbd0b4"/>
  <rect x="7" y="9" width="2" height="1" fill="#c6bca5"/>
  <rect x="9" y="9" width="1" height="1" fill="#dbd0b4"/>
  <rect x="10" y="9" width="1" height="1" fill="#bcb29c"/>
  <rect x="11" y="9" width="1" height="1" fill="#38342a"/>
  <rect x="2" y="10" width="1" height="1" fill="#38342a"/>
  <rect x="3" y="10" width="1" height="1" fill="#9a927e"/>
  <rect x="4" y="10" width="1" height="1" fill="#aea694"/>
  <rect x="5" y="10" width="3" height="1" fill="#dbd0b4"/>
  <rect x="8" y="10" width="2" height="1" fill="#bcb29c"/>
  <rect x="10" y="10" width="1" height="1" fill="#38342a"/>
  <rect x="3" y="11" width="1" height="1" fill="#38342a"/>
  <rect x="4" y="11" width="1" height="1" fill="#9a927e"/>
  <rect x="5" y="11" width="1" height="1" fill="#aea694"/>
  <rect x="6" y="11" width="2" height="1" fill="#dbd0b4"/>
  <rect x="8" y="11" width="1" height="1" fill="#bcb29c"/>
  <rect x="9" y="11" width="1" height="1" fill="#38342a"/>
  <rect x="4" y="12" width="1" height="1" fill="#38342a"/>
  <rect x="5" y="12" width="1" height="1" fill="#9a927e"/>
  <rect x="6" y="12" width="1" height="1" fill="#aea694"/>
  <rect x="7" y="12" width="1" height="1" fill="#bcb29c"/>
  <rect x="8" y="12" width="1" height="1" fill="#38342a"/>
  <rect x="5" y="13" width="1" height="1" fill="#38342a"/>
  <rect x="6" y="13" width="1" height="1" fill="#9a927e"/>
  <rect x="7" y="13" width="2" height="1" fill="#38342a"/>
  <rect x="6" y="14" width="2" height="1" fill="#38342a"/>
</svg>