<svg xmlns="http://www.w3.org/2000/svg" viewBox="0 0 128 128" width="100%" height="100%">
  <g id="background">
    <path fill="#c4c4c4" d="M20 16h7v7H20ZM63 16h7v7H63ZM84 16h22v7H84ZM113 16h7v7H113ZM6 23h7v7H6ZM20 23h15v7H20ZM91 23h29v7H91ZM13 30h7v8H13ZM99 30h14v8H99ZM6 38h21v7H6ZM99 38h21v7H99ZM6 45h21v7H6ZM99 45h14v7H99ZM6 52h21v7H6ZM99 52h14v7H99ZM6 59h14v7H6ZM106 59h7v7H106ZM6 66h21v7H6ZM6 73h7v7H6ZM6 80h7v7H6ZM6 87h7v8H6ZM6 95h7v7H6Z"/>
    <path fill="#000000" d="M0 0h128v2H0ZM0 2h6v7H0ZM120 2h8v7H120ZM0 116h6v7H0ZM120 116h8v7H120ZM0 123h128v5H0Z"/>
    <path fill="#767676" d="M0 66h6v7H0ZM120 66h8v7H120ZM0 73h6v7H0ZM120 73h8v7H120ZM0 80h6v7H0ZM120 80h8v7H120ZM0 87h6v8H0ZM120 87h8v8H120ZM0 95h6v7H0ZM120 95h8v7H120ZM0 102h6v7H0ZM13 102h7v7H13ZM106 102h7v7H106ZM120 102h8v7H120ZM0 109h6v7H0ZM120 109h8v7H120ZM6 116h114v7H6Z"/>
    <path fill="#dcdcdc" d="M6 9h14v7H6ZM56 9h64v7H56ZM6 30h7v8H6Z"/>
    <path fill="#a3a3a3" d="M13 109h7v7H13ZM106 109h7v7H106Z"/>
    <path fill="#eeeeee" d="M20 9h36v7H20ZM6 16h7v7H6Z"/>
    <path fill="#aeaeae" d="M13 16h7v7H13ZM106 16h7v7H106ZM113 30h7v8H113ZM113 45h7v7H113ZM113 52h7v7H113ZM113 59h7v7H113ZM113 66h7v7H113ZM13 73h7v7H13ZM106 73h14v7H106ZM13 80h14v7H13ZM99 80h21v7H99ZM13 87h14v8H13ZM99 87h21v8H99ZM13 95h22v7H13ZM91 95h29v7H91ZM6 102h7v7H6ZM20 102h29v7H20ZM77 102h29v7H77ZM113 102h7v7H113ZM6 109h7v7H6ZM20 109h86v7H20ZM113 109h7v7H113Z"/>
    <path fill="#8d8d8d" d="M6 2h114v7H6ZM0 9h6v7H0ZM120 9h8v7H120ZM0 16h6v7H0ZM120 16h8v7H120ZM0 23h6v7H0ZM120 23h8v7H120ZM0 30h6v8H0ZM120 30h8v8H120ZM0 38h6v7H0ZM120 38h8v7H120ZM0 45h6v7H0ZM120 45h8v7H120ZM0 52h6v7H0ZM120 52h8v7H120ZM0 59h6v7H0ZM120 59h8v7H120Z"/>
    <path fill="#cecece" d="M27 16h15v7H27ZM56 16h7v7H56ZM13 23h7v7H13ZM56 23h14v7H56ZM20 30h7v8H20ZM99 66h14v7H99Z"/>
  </g>
  <g id="fox-head">
    <path fill="#292929" d="M42 66h7v7H42ZM77 66h7v7H77Z"/>
    <path fill="#7a7a7a" d="M42 23h7v7H42ZM77 23h7v7H77ZM35 30h7v8H35ZM84 30h7v8H84Z"/>
    <path fill="#9d9d9d" d="M56 45h14v7H56ZM56 52h14v7H56ZM56 59h7v7H56Z"/>
    <path fill="#575757" d="M42 16h14v7H42ZM70 16h14v7H70ZM35 23h7v7H35ZM49 23h7v7H49ZM70 23h7v7H70ZM84 23h7v7H84ZM27 30h8v8H27ZM49 30h7v8H49ZM70 30h7v8H70ZM91 30h8v8H91ZM35 38h7v7H35ZM84 38h7v7H84Z"/>
    <path fill="#b0b0b0" d="M42 38h7v7H42ZM77 38h7v7H77Z"/>
    <path fill="#787878" d="M56 38h14v7H56ZM35 45h14v7H35ZM77 45h14v7H77ZM27 52h8v7H27ZM91 52h8v7H91ZM20 59h7v7H20ZM99 59h7v7H99ZM27 66h8v7H27ZM91 66h8v7H91ZM56 73h14v7H56ZM35 87h14v8H35ZM77 87h14v8H77Z"/>
    <path fill="#656565" d="M56 30h14v8H56ZM27 38h8v7H27ZM49 38h7v7H49ZM70 38h7v7H70ZM91 38h8v7H91ZM27 45h8v7H27ZM91 45h8v7H91ZM20 73h7v7H20ZM99 73h7v7H99ZM27 80h8v7H27ZM91 80h8v7H91ZM27 87h8v8H27ZM91 87h8v8H91ZM35 95h14v7H35ZM77 95h14v7H77ZM49 102h28v7H49Z"/>
    <path fill="#141414" d="M42 73h7v7H42ZM77 73h7v7H77ZM56 87h14v8H56Z"/>
    <path fill="#dedede" d="M42 30h7v8H42ZM77 30h7v8H77ZM42 59h7v7H42ZM77 59h7v7H77ZM35 73h7v7H35ZM84 73h7v7H84ZM56 95h14v7H56Z"/>
    <path fill="#f5f5f5" d="M35 59h7v7H35ZM84 59h7v7H84ZM35 66h7v7H35ZM84 66h7v7H84ZM49 87h7v8H49ZM70 87h7v8H70ZM49 95h7v7H49ZM70 95h7v7H70Z"/>
    <path fill="#898989" d="M49 45h7v7H49ZM70 45h7v7H70ZM35 52h21v7H35ZM70 52h21v7H70ZM27 59h8v7H27ZM49 59h7v7H49ZM63 59h14v7H63ZM91 59h8v7H91ZM49 66h28v7H49ZM27 73h8v7H27ZM49 73h7v7H49ZM70 73h7v7H70ZM91 73h8v7H91ZM35 80h56v7H35Z"/>
  </g>
</svg>